<?xml version="1.0" standalone="no"?>
<!DOCTYPE svg PUBLIC "-//W3C//DTD SVG 1.1//EN" "https://www.w3.org/Graphics/SVG/1.1/DTD/svg11.dtd">

<svg width="800" height="600" version="1.1" xmlns="http://www.w3.org/2000/svg">
	<ellipse stroke="black" stroke-width="1" fill="none" cx="64.5" cy="267.5" rx="30" ry="30"/>
	<text x="59.5" y="273.5" font-family="Times New Roman" font-size="20">0</text>
	<ellipse stroke="black" stroke-width="1" fill="none" cx="212.5" cy="101.5" rx="30" ry="30"/>
	<text x="207.5" y="107.5" font-family="Times New Roman" font-size="20">1</text>
	<ellipse stroke="black" stroke-width="1" fill="none" cx="212.5" cy="101.5" rx="24" ry="24"/>
	<ellipse stroke="black" stroke-width="1" fill="none" cx="285.5" cy="186.5" rx="30" ry="30"/>
	<text x="280.5" y="192.5" font-family="Times New Roman" font-size="20">2</text>
	<ellipse stroke="black" stroke-width="1" fill="none" cx="285.5" cy="186.5" rx="24" ry="24"/>
	<ellipse stroke="black" stroke-width="1" fill="none" cx="404.5" cy="186.5" rx="30" ry="30"/>
	<text x="399.5" y="192.5" font-family="Times New Roman" font-size="20">3</text>
	<ellipse stroke="black" stroke-width="1" fill="none" cx="530.5" cy="186.5" rx="30" ry="30"/>
	<text x="525.5" y="192.5" font-family="Times New Roman" font-size="20">4</text>
	<ellipse stroke="black" stroke-width="1" fill="none" cx="530.5" cy="186.5" rx="24" ry="24"/>
	<ellipse stroke="black" stroke-width="1" fill="none" cx="584.5" cy="275.5" rx="30" ry="30"/>
	<text x="579.5" y="281.5" font-family="Times New Roman" font-size="20">5</text>
	<ellipse stroke="black" stroke-width="1" fill="none" cx="584.5" cy="275.5" rx="24" ry="24"/>
	<ellipse stroke="black" stroke-width="1" fill="none" cx="64.5" cy="535.5" rx="30" ry="30"/>
	<text x="54.5" y="541.5" font-family="Times New Roman" font-size="20">99</text>
	<ellipse stroke="black" stroke-width="1" fill="none" cx="64.5" cy="535.5" rx="24" ry="24"/>
	<path stroke="black" stroke-width="1" fill="none" d="M 199.275,74.703 A 22.5,22.5 0 1 1 225.725,74.703"/>
	<text x="152.5" y="24.5" font-family="Times New Roman" font-size="20">letra | digito | _</text>
	<polygon fill="black" stroke-width="1" points="225.725,74.703 234.473,71.17 226.382,65.292"/>
	<polygon stroke="black" stroke-width="1" points="84.464,245.108 192.536,123.892"/>
	<polygon fill="black" stroke-width="1" points="192.536,123.892 183.48,126.536 190.944,133.191"/>
	<text x="143.5" y="205.5" font-family="Times New Roman" font-size="20">letra | _</text>
	<path stroke="black" stroke-width="1" fill="none" d="M 276.503,158.004 A 22.5,22.5 0 1 1 302.646,162.025"/>
	<text x="283.5" y="108.5" font-family="Times New Roman" font-size="20">digito</text>
	<polygon fill="black" stroke-width="1" points="302.646,162.025 311.829,159.863 304.727,152.824"/>
	<polygon stroke="black" stroke-width="1" points="92.668,257.176 257.332,196.824"/>
	<polygon fill="black" stroke-width="1" points="257.332,196.824 248.1,194.882 251.542,204.272"/>
	<text x="177.5" y="248.5" font-family="Times New Roman" font-size="20">digito</text>
	<path stroke="black" stroke-width="1" fill="none" d="M 540.097,158.2 A 22.5,22.5 0 1 1 558.8,176.903"/>
	<text x="583.5" y="130.5" font-family="Times New Roman" font-size="20">digito</text>
	<polygon fill="black" stroke-width="1" points="558.8,176.903 567.484,180.59 565.919,170.713"/>
	<polygon stroke="black" stroke-width="1" points="315.5,186.5 374.5,186.5"/>
	<polygon fill="black" stroke-width="1" points="374.5,186.5 366.5,181.5 366.5,191.5"/>
	<text x="342.5" y="207.5" font-family="Times New Roman" font-size="20">.</text>
	<polygon stroke="black" stroke-width="1" points="434.5,186.5 500.5,186.5"/>
	<polygon fill="black" stroke-width="1" points="500.5,186.5 492.5,181.5 492.5,191.5"/>
	<text x="444.5" y="207.5" font-family="Times New Roman" font-size="20">digito</text>
	<polygon stroke="black" stroke-width="1" points="94.496,267.961 554.504,275.039"/>
	<polygon fill="black" stroke-width="1" points="554.504,275.039 546.581,269.916 546.428,279.915"/>
	<text x="208.5" y="294.5" font-family="Times New Roman" font-size="20">{")" | "(" | "{" | "}" | "," | ";"}</text>
	<polygon stroke="black" stroke-width="1" points="64.5,297.5 64.5,505.5"/>
	<polygon fill="black" stroke-width="1" points="64.5,505.5 69.5,497.5 59.5,497.5"/>
	<text x="49.5" y="407.5" font-family="Times New Roman" font-size="20">$</text>
</svg>